# xmcd
#
# Track frame offsets: 
#        150
#        12186
#        23433
#        35829
#        49444
#        60365
#        73997
#        87081
#        101460
#        114111
#        129041
#        142847
#        153787
#        166931
#        179700
#        192266
#        206546
#        221297
#        232733
#        244662
#        257606
#        270019
#        282885
#        296737
#
# Disc length: 4143 seconds
#
# Revision: 0
# Processed by: cddbd v1.5.2PL0 Copyright (c) Steve Scherf et al.
# Submitted via: ExactAudioCopy v0.95b4
#
DISCID=3b102d18
DTITLE=Little Walter - Little Walter 1947-1953
DYEAR=2004
DGENRE=Blues
TTITLE0=Ora Nelle blues
TTITLE1=I just keep loving her
TTITLE2=Juke
TTITLE3=Can´t hold on much longer
TTITLE4=Blue midnight
TTITLE5=Boogie
TTITLE6=Mean old world
TTITLE7=Sad hours
TTITLE8=Fast boogie
TTITLE9=Don´t need no horse
TTITLE10=Don´t have to hunt no more
TTITLE11=Grazy legs
TTITLE12=Tonight with a fool
TTITLE13=Off the wall
TTITLE14=Tell me mama
TTITLE15=Blues with a feeling
TTITLE16=Quarter to twelve
TTITLE17=Last boogie
TTITLE18=Too late
TTITLE19=Fast boogie
TTITLE20=Lights out
TTITLE21=Fast large one
TTITLE22=You´re so fine
TTITLE23=My kind of baby
EXTD=
EXTT0=
EXTT1=
EXTT2=
EXTT3=
EXTT4=
EXTT5=
EXTT6=
EXTT7=
EXTT8=
EXTT9=
EXTT10=
EXTT11=
EXTT12=
EXTT13=
EXTT14=
EXTT15=
EXTT16=
EXTT17=
EXTT18=
EXTT19=
EXTT20=
EXTT21=
EXTT22=
EXTT23=
PLAYORDER=
